<svg width="24" height="24" viewBox="0 0 24 24" fill="none" xmlns="http://www.w3.org/2000/svg">
  <path d="M17.9999 4.47942C16.4086 2.88812 14.2504 1.99414 11.9999 1.99414C9.74949 1.99414 7.59123 2.88812 5.99993 4.47942C4.40863 6.07072 3.51465 8.22899 3.51465 10.4794C3.51465 12.7299 4.40863 14.8881 5.99993 16.4794L11.2699 21.7594C11.3629 21.8532 11.4735 21.9275 11.5954 21.9783C11.7172 22.0291 11.8479 22.0552 11.9799 22.0552C12.1119 22.0552 12.2426 22.0291 12.3645 21.9783C12.4864 21.9275 12.597 21.8532 12.6899 21.7594L17.9999 16.4294C19.5846 14.8447 20.4748 12.6955 20.4748 10.4544C20.4748 8.21337 19.5846 6.0641 17.9999 4.47942ZM16.5699 14.9994L11.9999 19.5894L7.42993 14.9994C6.52707 14.0957 5.91241 12.9447 5.66362 11.6917C5.41484 10.4388 5.54312 9.14017 6.03223 7.9601C6.52135 6.78004 7.34935 5.77147 8.41156 5.0619C9.47377 4.35233 10.7225 3.9736 11.9999 3.9736C13.2773 3.9736 14.5261 4.35233 15.5883 5.0619C16.6505 5.77147 17.4785 6.78004 17.9676 7.9601C18.4567 9.14017 18.585 10.4388 18.3362 11.6917C18.0875 12.9447 17.4728 14.0957 16.5699 14.9994ZM8.99993 7.40942C8.19264 8.21919 7.73932 9.31599 7.73932 10.4594C7.73932 11.6029 8.19264 12.6997 8.99993 13.5094C9.59969 14.1102 10.3635 14.5205 11.1956 14.6888C12.0276 14.8571 12.8909 14.776 13.677 14.4556C14.4631 14.1351 15.1371 13.5897 15.6144 12.8877C16.0917 12.1856 16.3511 11.3583 16.3599 10.5094C16.3644 9.94263 16.2553 9.38068 16.0388 8.85681C15.8224 8.33294 15.5032 7.85778 15.0999 7.45942C14.7036 7.054 14.231 6.73096 13.7094 6.50889C13.1877 6.28682 12.6273 6.1701 12.0603 6.16545C11.4934 6.1608 10.9311 6.26832 10.4059 6.48181C9.88067 6.6953 9.40285 7.01055 8.99993 7.40942ZM13.6899 12.0894C13.311 12.4742 12.8101 12.7153 12.2731 12.7717C11.736 12.828 11.196 12.6961 10.7454 12.3983C10.2949 12.1006 9.96173 11.6557 9.80294 11.1395C9.64415 10.6233 9.66958 10.0681 9.87489 9.56858C10.0802 9.06909 10.4526 8.65644 10.9285 8.40116C11.4044 8.14588 11.9542 8.06383 12.4839 8.16904C13.0135 8.27425 13.4902 8.56018 13.8324 8.97795C14.1746 9.39573 14.3611 9.91939 14.3599 10.4594C14.3454 11.0767 14.0864 11.6629 13.6399 12.0894H13.6899Z" fill="#262626" />
</svg>