<svg width="24" height="24" viewBox="0 0 24 24" fill="none" xmlns="http://www.w3.org/2000/svg">
  <path fill-rule="evenodd" clip-rule="evenodd" d="M12.0122 5.57193L10.9252 4.48494C8.77734 2.33705 5.29493 2.33705 3.14705 4.48494C0.999162 6.63282 0.999162 10.1152 3.14705 12.2631L11.9859 21.1019L11.9877 21.1001L12.014 21.1265L20.8528 12.2876C23.0007 10.1398 23.0007 6.65736 20.8528 4.50947C18.705 2.36159 15.2226 2.36159 13.0747 4.50947L12.0122 5.57193ZM11.9877 18.2717L16.9239 13.3355L18.3747 11.9344L18.3762 11.9359L19.4386 10.8734C20.8055 9.5066 20.8055 7.29052 19.4386 5.92369C18.0718 4.55685 15.8557 4.55685 14.4889 5.92369L12.0133 8.39928L12.006 8.39204L12.005 8.39312L9.51101 5.89915C8.14417 4.53231 5.92809 4.53231 4.56126 5.89915C3.19442 7.26598 3.19442 9.48206 4.56126 10.8489L7.10068 13.3883L7.10248 13.3865L11.9877 18.2717Z" fill="#0D0D0D" />
</svg>